<svg width="24" height="30" viewBox="0 0 24 30" fill="none" xmlns="http://www.w3.org/2000/svg">
<g filter="url(#filter0_d_4093_56697)">
<path d="M18 3H15C14.4477 3 14 3.44772 14 4V20C14 20.5523 14.4477 21 15 21H18C18.5523 21 19 20.5523 19 20V4C19 3.44772 18.5523 3 18 3Z" stroke="white" stroke-width="1.5" stroke-linecap="round" stroke-linejoin="round"/>
<path d="M9 3H6C5.44772 3 5 3.44772 5 4V20C5 20.5523 5.44772 21 6 21H9C9.55228 21 10 20.5523 10 20V4C10 3.44772 9.55228 3 9 3Z" stroke="white" stroke-width="1.5" stroke-linecap="round" stroke-linejoin="round"/>
</g>
<defs>
<filter id="filter0_d_4093_56697" x="-4" y="0" width="32" height="32" filterUnits="userSpaceOnUse" color-interpolation-filters="sRGB">
<feFlood flood-opacity="0" result="BackgroundImageFix"/>
<feColorMatrix in="SourceAlpha" type="matrix" values="0 0 0 0 0 0 0 0 0 0 0 0 0 0 0 0 0 0 127 0" result="hardAlpha"/>
<feOffset dy="4"/>
<feGaussianBlur stdDeviation="2"/>
<feComposite in2="hardAlpha" operator="out"/>
<feColorMatrix type="matrix" values="0 0 0 0 0 0 0 0 0 0 0 0 0 0 0 0 0 0 0.25 0"/>
<feBlend mode="normal" in2="BackgroundImageFix" result="effect1_dropShadow_4093_56697"/>
<feBlend mode="normal" in="SourceGraphic" in2="effect1_dropShadow_4093_56697" result="shape"/>
</filter>
</defs>
</svg>
