<svg width="24" height="24" viewBox="0 0 24 24" fill="none" xmlns="http://www.w3.org/2000/svg">
<path fill-rule="evenodd" clip-rule="evenodd" d="M18 2.75C17.8011 2.75 17.6103 2.67098 17.4697 2.53033C17.329 2.38968 17.25 2.19891 17.25 2C17.25 1.80109 17.329 1.61032 17.4697 1.46967C17.6103 1.32902 17.8011 1.25 18 1.25H22C22.1482 1.25013 22.2931 1.29419 22.4163 1.37661C22.5395 1.45903 22.6356 1.57611 22.6923 1.71308C22.749 1.85004 22.7638 2.00074 22.735 2.14614C22.7061 2.29154 22.6348 2.42511 22.53 2.53L19.81 5.25H22C22.1989 5.25 22.3897 5.32902 22.5303 5.46967C22.671 5.61032 22.75 5.80109 22.75 6C22.75 6.19891 22.671 6.38968 22.5303 6.53033C22.3897 6.67098 22.1989 6.75 22 6.75H18C17.8518 6.74987 17.7069 6.70581 17.5837 6.62339C17.4605 6.54097 17.3644 6.42389 17.3077 6.28692C17.251 6.14996 17.2362 5.99926 17.265 5.85386C17.2939 5.70847 17.3652 5.57489 17.47 5.47L20.19 2.75H18ZM13.5 8.75C13.3011 8.75 13.1103 8.67098 12.9697 8.53033C12.829 8.38968 12.75 8.19891 12.75 8C12.75 7.80109 12.829 7.61032 12.9697 7.46967C13.1103 7.32902 13.3011 7.25 13.5 7.25H16.5C16.6482 7.25013 16.7931 7.29419 16.9163 7.37661C17.0395 7.45903 17.1356 7.57611 17.1923 7.71308C17.249 7.85004 17.2638 8.00074 17.235 8.14614C17.2061 8.29153 17.1348 8.42511 17.03 8.53L15.31 10.25H16.5C16.6989 10.25 16.8897 10.329 17.0303 10.4697C17.171 10.6103 17.25 10.8011 17.25 11C17.25 11.1989 17.171 11.3897 17.0303 11.5303C16.8897 11.671 16.6989 11.75 16.5 11.75H13.5C13.3518 11.7499 13.2069 11.7058 13.0837 11.6234C12.9605 11.541 12.8644 11.4239 12.8077 11.2869C12.751 11.15 12.7362 10.9993 12.765 10.8539C12.7939 10.7085 12.8652 10.5749 12.97 10.47L14.69 8.75H13.5Z" fill="white"/>
<path d="M12 22C17.523 22 22 17.523 22 12C22 11.537 21.306 11.46 21.067 11.857C20.5572 12.7013 19.862 13.4186 19.034 13.9545C18.206 14.4903 17.2669 14.8307 16.2878 14.9499C15.3088 15.0691 14.3154 14.9639 13.383 14.6423C12.4507 14.3207 11.6037 13.7911 10.9063 13.0937C10.2089 12.3963 9.67932 11.5493 9.35772 10.617C9.03613 9.68457 8.93093 8.69123 9.0501 7.71217C9.16926 6.73311 9.50967 5.794 10.0455 4.96599C10.5814 4.13797 11.2987 3.44275 12.143 2.933C12.54 2.693 12.463 2 12 2C6.477 2 2 6.477 2 12C2 17.523 6.477 22 12 22Z" fill="white"/>
</svg>
