<svg width="36" height="36" viewBox="0 0 36 36" fill="none" xmlns="http://www.w3.org/2000/svg">
<path d="M7.5 33L28.5 27M7.5 27L28.5 33M18 3C19.5 7.5 21.75 8.25 23.25 9.75C24.6631 11.1347 25.4718 13.0217 25.5 15C25.5 16.9891 24.7098 18.8968 23.3033 20.3033C21.8968 21.7098 19.9891 22.5 18 22.5C16.0109 22.5 14.1032 21.7098 12.6967 20.3033C11.2902 18.8968 10.5 16.9891 10.5 15C10.5 14.55 10.5 14.1 10.65 13.65C10.7768 14.0936 11.0041 14.502 11.3144 14.8434C11.6247 15.1849 12.0096 15.4501 12.4391 15.6186C12.8686 15.7871 13.3312 15.8542 13.7908 15.8148C14.2505 15.7754 14.6949 15.6305 15.0895 15.3913C15.484 15.1522 15.8181 14.8253 16.0657 14.4361C16.3134 14.0468 16.4679 13.6056 16.5173 13.1469C16.5667 12.6882 16.5096 12.2243 16.3505 11.7912C16.1914 11.3582 15.9346 10.9676 15.6 10.65C12 6.75 16.5 3 18 3Z" stroke="white" stroke-opacity="0.7" stroke-width="2" stroke-linecap="round" stroke-linejoin="round"/>
</svg>
