<svg width="24" height="24" viewBox="0 0 24 24" fill="none" xmlns="http://www.w3.org/2000/svg">
<path d="M11.0194 2.81395C11.0622 2.58456 11.184 2.37737 11.3635 2.22827C11.543 2.07917 11.769 1.99756 12.0024 1.99756C12.2358 1.99756 12.4618 2.07917 12.6413 2.22827C12.8208 2.37737 12.9425 2.58456 12.9854 2.81395L14.0364 8.37195C14.111 8.7671 14.3031 9.13057 14.5874 9.41492C14.8718 9.69928 15.2352 9.89131 15.6304 9.96595L21.1884 11.017C21.4178 11.0598 21.625 11.1815 21.7741 11.3611C21.9232 11.5406 22.0048 11.7666 22.0048 12C22.0048 12.2333 21.9232 12.4593 21.7741 12.6389C21.625 12.8184 21.4178 12.9401 21.1884 12.983L15.6304 14.034C15.2352 14.1086 14.8718 14.3006 14.5874 14.585C14.3031 14.8693 14.111 15.2328 14.0364 15.628L12.9854 21.186C12.9425 21.4153 12.8208 21.6225 12.6413 21.7716C12.4618 21.9207 12.2358 22.0023 12.0024 22.0023C11.769 22.0023 11.543 21.9207 11.3635 21.7716C11.184 21.6225 11.0622 21.4153 11.0194 21.186L9.96839 15.628C9.89375 15.2328 9.70172 14.8693 9.41737 14.585C9.13301 14.3006 8.76954 14.1086 8.37439 14.034L2.81639 12.983C2.587 12.9401 2.37981 12.8184 2.23071 12.6389C2.08162 12.4593 2 12.2333 2 12C2 11.7666 2.08162 11.5406 2.23071 11.3611C2.37981 11.1815 2.587 11.0598 2.81639 11.017L8.37439 9.96595C8.76954 9.89131 9.13301 9.69928 9.41737 9.41492C9.70172 9.13057 9.89375 8.7671 9.96839 8.37195L11.0194 2.81395Z" stroke="white" stroke-width="1.5" stroke-linecap="round" stroke-linejoin="round"/>
<path d="M20 2V6" stroke="white" stroke-width="1.5" stroke-linecap="round" stroke-linejoin="round"/>
<path d="M22 4H18" stroke="white" stroke-width="1.5" stroke-linecap="round" stroke-linejoin="round"/>
<path d="M4 22C5.10457 22 6 21.1046 6 20C6 18.8954 5.10457 18 4 18C2.89543 18 2 18.8954 2 20C2 21.1046 2.89543 22 4 22Z" stroke="white" stroke-width="1.5" stroke-linecap="round" stroke-linejoin="round"/>
</svg>
