<svg width="24" height="24" viewBox="0 0 24 24" fill="none" xmlns="http://www.w3.org/2000/svg">
<path d="M17.5964 12.768C17.9715 13.1432 18.4803 13.3539 19.0109 13.3539C19.5414 13.3539 20.0502 13.1432 20.4254 12.768C20.8005 12.3929 21.0113 11.884 21.0113 11.3535C21.0113 10.823 20.8005 10.3142 20.4254 9.93901L18.6574 8.17201C19.0325 8.54702 19.5413 8.75765 20.0717 8.75756C20.3344 8.75751 20.5945 8.70573 20.8371 8.60518C21.0797 8.50462 21.3002 8.35726 21.4859 8.17151C21.6716 7.98575 21.8189 7.76524 21.9193 7.52257C22.0198 7.27989 22.0715 7.0198 22.0714 6.75715C22.0714 6.4945 22.0196 6.23443 21.9191 5.99179C21.8185 5.74915 21.6711 5.5287 21.4854 5.34301L18.6574 2.51501C18.2824 2.13986 17.7737 1.92905 17.2432 1.92896C16.7128 1.92886 16.204 2.13949 15.8289 2.51451C15.4537 2.88952 15.2429 3.39821 15.2428 3.92865C15.2427 4.4591 15.4534 4.96786 15.8284 5.34301L14.0614 3.57501C13.8756 3.38925 13.6551 3.2419 13.4124 3.14137C13.1697 3.04084 12.9096 2.9891 12.6469 2.9891C12.3842 2.9891 12.1241 3.04084 11.8814 3.14137C11.6387 3.2419 11.4181 3.38925 11.2324 3.57501C11.0466 3.76076 10.8993 3.98128 10.7988 4.22398C10.6982 4.46669 10.6465 4.72681 10.6465 4.98951C10.6465 5.2522 10.6982 5.51233 10.7988 5.75503C10.8993 5.99773 11.0466 6.21825 11.2324 6.40401L17.5964 12.768Z" stroke="white" stroke-width="1.5" stroke-linecap="round" stroke-linejoin="round"/>
<path d="M2.5 21.5001L3.9 20.1001" stroke="white" stroke-width="1.5" stroke-linecap="round" stroke-linejoin="round"/>
<path d="M20.0996 3.9L21.4996 2.5" stroke="white" stroke-width="1.5" stroke-linecap="round" stroke-linejoin="round"/>
<path d="M5.34374 21.4849C5.71876 21.8601 6.22744 22.0709 6.75789 22.071C7.02054 22.071 7.28062 22.0193 7.5233 21.9188C7.76597 21.8184 7.98648 21.6711 8.17224 21.4854C8.35799 21.2997 8.50536 21.0793 8.60591 20.8366C8.70647 20.594 8.75824 20.3339 8.75829 20.0713C8.75834 19.8086 8.70665 19.5485 8.60618 19.3058C8.50571 19.0632 8.35843 18.8427 8.17274 18.6569L9.93974 20.4249C10.3149 20.8 10.8237 21.0108 11.3542 21.0108C11.8848 21.0108 12.3936 20.8 12.7687 20.4249C13.1439 20.0498 13.3546 19.5409 13.3546 19.0104C13.3546 18.4799 13.1439 17.9711 12.7687 17.5959L6.40474 11.2319C6.21898 11.0461 5.99846 10.8988 5.75576 10.7983C5.51306 10.6977 5.25294 10.646 4.99024 10.646C4.72754 10.646 4.46742 10.6977 4.22472 10.7983C3.98202 10.8988 3.76149 11.0461 3.57574 11.2319C3.38998 11.4177 3.24264 11.6382 3.14211 11.8809C3.04158 12.1236 2.98983 12.3837 2.98983 12.6464C2.98983 12.9091 3.04158 13.1692 3.14211 13.4119C3.24264 13.6546 3.38998 13.8751 3.57574 14.0609L5.34374 15.8279C4.96859 15.4529 4.45983 15.2423 3.92939 15.2423C3.39894 15.2424 2.89026 15.4533 2.51524 15.8284C2.14022 16.2035 1.92959 16.7123 1.92969 17.2428C1.92978 17.7732 2.14059 18.2819 2.51574 18.6569L5.34374 21.4849Z" stroke="white" stroke-width="1.5" stroke-linecap="round" stroke-linejoin="round"/>
<path d="M9.59961 14.4001L14.3996 9.6001" stroke="white" stroke-width="1.5" stroke-linecap="round" stroke-linejoin="round"/>
</svg>
