<svg width="36" height="36" viewBox="0 0 36 36" fill="none" xmlns="http://www.w3.org/2000/svg">
<path d="M24 10.5H24.015M5.1 27H18C21.1826 27 24.2348 25.7357 26.4853 23.4853C28.7357 21.2348 30 18.1826 30 15V10.5M30 10.5C30.0034 9.22184 29.5985 7.97603 28.8444 6.94407C28.0903 5.9121 27.0263 5.14792 25.8076 4.76287C24.5888 4.37782 23.2789 4.39203 22.0688 4.80343C20.8587 5.21482 19.8116 6.0019 19.08 7.04998L3 30M30 10.5L33 11.25L30 12M15 27V31.5M21 26.625V31.5M10.5 27C12.3497 26.9999 14.1544 26.4299 15.6686 25.3675C17.1828 24.3052 18.3329 22.8021 18.9623 21.0629C19.5918 19.3236 19.6701 17.4326 19.1866 15.6472C18.7031 13.8619 17.6812 12.2689 16.26 11.085" stroke="white" stroke-opacity="0.7" stroke-width="2" stroke-linecap="round" stroke-linejoin="round"/>
</svg>
