<svg width="36" height="36" viewBox="0 0 36 36" fill="none" xmlns="http://www.w3.org/2000/svg">
<path d="M16.2397 24.5684C14.6679 25.3627 12.8998 25.6851 11.1489 25.4966C9.39791 25.3082 7.73891 24.617 6.37212 23.5065C5.00532 22.396 3.98915 20.9137 3.44626 19.2384C2.90337 17.5631 2.85697 15.7665 3.31266 14.0654L11.4307 16.2404C10.6364 14.6686 10.314 12.9006 10.5024 11.1496C10.6908 9.39864 11.382 7.73965 12.4925 6.37285C13.603 5.00606 15.0854 3.98989 16.7607 3.447C18.4359 2.90411 20.2326 2.8577 21.9337 3.31339L19.7587 11.4314C21.3304 10.6371 23.0985 10.3147 24.8494 10.5031C26.6004 10.6916 28.2594 11.3827 29.6262 12.4932C30.993 13.6037 32.0092 15.0861 32.552 16.7614C33.0949 18.4367 33.1413 20.2333 32.6857 21.9344L24.5677 19.7594C25.3619 21.3312 25.6843 23.0992 25.4959 24.8502C25.3075 26.6011 24.6163 28.2601 23.5058 29.6269C22.3953 30.9937 20.913 32.0099 19.2377 32.5528C17.5624 33.0957 15.7657 33.1421 14.0647 32.6864L16.2397 24.5684Z" stroke="url(#paint0_linear_4092_56626)" stroke-width="2" stroke-linecap="round" stroke-linejoin="round"/>
<path d="M18 18V18.015" stroke="url(#paint1_linear_4092_56626)" stroke-width="2" stroke-linecap="round" stroke-linejoin="round"/>
<defs>
<linearGradient id="paint0_linear_4092_56626" x1="3.00195" y1="18.2457" x2="27.3081" y2="30.0041" gradientUnits="userSpaceOnUse">
<stop offset="0.283654" stop-color="#865AFD"/>
<stop offset="1" stop-color="#5691FB"/>
</linearGradient>
<linearGradient id="paint1_linear_4092_56626" x1="18" y1="18.0076" x2="18.001" y2="18.0386" gradientUnits="userSpaceOnUse">
<stop offset="0.283654" stop-color="#865AFD"/>
<stop offset="1" stop-color="#5691FB"/>
</linearGradient>
</defs>
</svg>
