<svg width="36" height="36" viewBox="0 0 36 36" fill="none" xmlns="http://www.w3.org/2000/svg">
<mask id="path-1-inside-1_4092_56638" fill="white">
<path d="M18.3968 6.03711L17.3741 6.78284C18.8669 8.82992 22.2428 10.702 25.2543 12.3511C25.6034 12.5422 25.9455 12.7282 26.2805 12.9104C25.5937 12.6909 24.8826 12.464 24.1488 12.2231C22.2734 11.6075 20.3196 10.9215 18.6947 10.1777C17.0697 9.43398 15.7835 8.59951 15.2591 7.88035L14.2366 8.62609C15.0306 9.71502 16.4625 10.5477 18.1679 11.3284C19.8733 12.1091 21.862 12.8046 23.7542 13.4257C25.6463 14.0468 27.4443 14.5936 28.7329 15.0564C29.3772 15.2877 29.8973 15.5021 30.2079 15.6703C30.3085 15.7248 30.34 15.7532 30.3885 15.7885C30.3576 15.9565 30.2894 16.2274 30.0523 16.5832C29.59 17.2695 28.7728 17.5871 27.9863 17.6724C28.2799 17.7588 28.4704 18.2356 28.47 18.8831C29.1579 18.7655 29.7161 18.5252 30.1581 18.2262C30.7096 17.9014 31.094 17.4765 31.3305 17.0545C31.6441 16.3768 31.9634 15.419 31.5588 14.8077C31.4391 14.634 31.2959 14.4936 31.1289 14.3502C30.7948 14.0635 30.3578 13.773 29.8297 13.4519C28.7735 12.8098 27.3586 12.0606 25.8622 11.2411C22.8693 9.60209 19.5409 7.6062 18.3968 6.03711ZM10.3533 7.77819C9.69234 8.05058 9.7372 8.50775 10.0799 8.92555C11.1186 10.1985 12.0354 12.0892 12.9292 13.0565C13.255 13.4092 13.5805 13.7621 13.9056 14.1154C13.7251 13.7664 13.5633 13.4555 13.3527 13.0453C12.6338 11.6454 11.9499 9.68858 11.268 8.46043C11.0433 8.16202 10.747 7.78297 10.3533 7.77819ZM8.1956 9.20996C7.40916 9.33484 7.6845 10.0235 7.9275 10.4501C8.64975 12.0098 9.99898 13.2333 10.6038 14.4752C11.8863 17.5148 12.8495 20.5154 14.7433 22.3678C14.9636 22.0481 15.2194 21.7544 15.5058 21.4923C16.0424 21.0019 16.6773 20.6833 17.3534 20.4836C16.5764 18.9165 16.8288 19.1424 11.9996 13.9154C10.8682 12.6909 9.96263 10.7837 9.09933 9.72577C8.83432 9.47757 8.55258 9.23534 8.1956 9.20996ZM7.17867 11.6638L4.38966 26.8624L1.59375 27.6265L1.82079 28.4031L5.32854 27.4889L7.81641 12.6489C7.59605 12.3257 7.38341 11.9972 7.17867 11.6638ZM8.85492 14.1091L8.61073 15.5653C8.796 15.5414 8.98303 15.518 9.17112 15.495L9.38318 14.8979C9.21478 14.6263 9.039 14.3688 8.85492 14.1091ZM19.5978 14.8871C19.5816 15.4204 19.5258 15.886 19.6257 16.2497C19.7672 16.7645 20.1033 17.2505 21.6346 17.6922L22.0349 17.8078L22.0871 18.221C22.1801 18.9579 22.3297 19.7185 22.5891 20.428C23.0136 20.5927 23.2823 20.4105 23.6935 20.3977C23.8625 20.3941 24.031 20.418 24.1924 20.4685C24.1844 20.3557 24.1791 20.2428 24.1764 20.1298C24.2411 18.3525 24.7468 17.0528 26.1446 16.1406C24.261 15.272 21.5248 14.9266 19.5978 14.8871ZM18.2986 15.9964C17.4693 16.0434 16.6194 16.0969 15.764 16.1562C17.9389 18.5829 17.8765 18.7476 18.647 20.2385C18.968 20.2069 19.2904 20.1926 19.6089 20.193C19.9206 20.1934 20.2282 20.2074 20.5276 20.2297C20.7268 20.129 20.9223 20.021 21.1134 19.9057C21.0221 19.5245 20.9529 19.1458 20.8984 18.7794C19.4016 18.2598 18.6438 17.453 18.4053 16.5853C18.3499 16.3835 18.3173 16.1866 18.2986 15.9964ZM10.127 16.6565C10.0873 16.661 10.0464 16.665 10.0068 16.6696C9.46773 16.7313 8.92934 16.7987 8.3917 16.8718L7.67318 21.1584C9.18398 21.4803 10.8613 21.7007 12.5702 21.7417C11.4085 20.1007 10.7906 18.3748 10.127 16.6565ZM27.2274 16.9794C26.5465 17.2993 26.1372 17.7157 25.8682 18.1825C25.5406 18.7509 25.4274 19.4252 25.4418 20.1028C25.4499 20.4808 25.4987 20.8551 25.5651 21.2022C25.6553 21.5883 25.8902 21.9106 26.221 21.9609C26.7705 22.0394 27.3004 21.9198 27.7105 21.5767C28.1205 21.2336 28.4556 20.6426 28.5085 19.6117C28.5181 19.424 28.5021 19.2253 28.4671 19.0245C28.4612 19.1672 28.4468 19.3094 28.4242 19.4505C28.2759 20.3724 27.8209 21.0659 27.4079 20.9995C26.9951 20.9329 26.7805 20.1318 26.9288 19.21C27.0742 18.3073 27.5147 17.6202 27.923 17.6591C27.6997 17.3278 27.4427 17.1032 27.2274 16.9794ZM4.82334 17.4876C4.47171 17.5667 4.14159 17.6487 3.83798 17.7336C3.06877 17.9489 2.46359 18.1888 2.10626 18.4082C1.80103 18.5956 1.75315 18.6952 1.74169 18.7295C1.7618 18.7604 1.80645 18.8338 1.91536 18.9313C2.11146 19.1065 2.44868 19.3324 2.88975 19.5626C3.28863 19.7707 3.7759 19.9842 4.32701 20.1925L4.82334 17.4876V17.4876ZM30.2854 19.2773L29.7742 19.6069C29.7735 19.6301 29.7735 19.6533 29.7723 19.6765C29.7594 19.9328 29.7283 20.1879 29.6792 20.4398L32.6389 24.5611L34.4075 23.8748L33.9495 22.6948L32.8835 23.1455L30.2854 19.2773ZM19.8983 21.4955C19.813 21.4945 19.7276 21.4946 19.6423 21.4957C18.3667 21.5119 17.1003 21.7497 16.3594 22.4267C14.9843 23.6832 14.8016 25.8884 14.5936 27.9047L16.3459 29.963L17.4233 29.4255L15.9452 27.5842L15.9961 27.3006C16.2188 26.0624 16.3452 24.9039 17.5734 23.764L17.7751 23.5767L18.0498 23.5967C18.999 23.6657 19.8423 23.6954 20.4764 23.5612C21.1041 23.4283 21.5112 23.1927 21.8407 22.6217C21.9567 22.3842 21.9577 22.2484 21.9096 22.0875C21.8715 21.9594 21.7636 21.8001 21.6152 21.6302C21.0818 21.5556 20.4948 21.5019 19.8983 21.4955ZM23.7233 21.6631C23.1407 21.8903 23.0306 22.7126 23.2004 23.1746C23.3394 23.5475 23.6274 23.906 24.024 24.227C24.742 24.8079 25.7864 25.2199 26.5796 25.423L29.0486 23.7045L31.7287 27.2559L34.372 26.3832L34.0807 25.3896L32.1883 26.1037L29.3058 22.0894L26.3818 24.1798L26.006 23.8644C25.2085 23.1948 24.6393 22.3123 24.1847 21.9121C23.9573 21.712 23.8148 21.661 23.7233 21.6631ZM7.46351 22.4088L7.17347 24.1391C9.61795 24.1789 11.8925 23.9904 14.0705 23.6648C14.0883 23.6181 14.1067 23.5715 14.1255 23.5252C14.0163 23.4276 13.9102 23.3267 13.8072 23.2226C13.7399 23.1538 13.6735 23.0843 13.6078 23.0139C11.4598 23.0572 9.34352 22.8075 7.46351 22.4088ZM3.55329 24.4082L2.1142 24.8014L2.34131 25.578L3.38883 25.3051L3.55336 24.4081L3.55329 24.4082ZM18.2568 24.8728C18.1054 25.1142 18.0531 25.4495 17.9688 25.7301L20.6729 28.0022L21.487 27.0333L19.4206 25.2968L19.5339 24.9197C19.1167 24.925 18.6897 24.902 18.2568 24.8728Z"/>
</mask>
<path d="M18.3968 6.03711L17.3741 6.78284C18.8669 8.82992 22.2428 10.702 25.2543 12.3511C25.6034 12.5422 25.9455 12.7282 26.2805 12.9104C25.5937 12.6909 24.8826 12.464 24.1488 12.2231C22.2734 11.6075 20.3196 10.9215 18.6947 10.1777C17.0697 9.43398 15.7835 8.59951 15.2591 7.88035L14.2366 8.62609C15.0306 9.71502 16.4625 10.5477 18.1679 11.3284C19.8733 12.1091 21.862 12.8046 23.7542 13.4257C25.6463 14.0468 27.4443 14.5936 28.7329 15.0564C29.3772 15.2877 29.8973 15.5021 30.2079 15.6703C30.3085 15.7248 30.34 15.7532 30.3885 15.7885C30.3576 15.9565 30.2894 16.2274 30.0523 16.5832C29.59 17.2695 28.7728 17.5871 27.9863 17.6724C28.2799 17.7588 28.4704 18.2356 28.47 18.8831C29.1579 18.7655 29.7161 18.5252 30.1581 18.2262C30.7096 17.9014 31.094 17.4765 31.3305 17.0545C31.6441 16.3768 31.9634 15.419 31.5588 14.8077C31.4391 14.634 31.2959 14.4936 31.1289 14.3502C30.7948 14.0635 30.3578 13.773 29.8297 13.4519C28.7735 12.8098 27.3586 12.0606 25.8622 11.2411C22.8693 9.60209 19.5409 7.6062 18.3968 6.03711ZM10.3533 7.77819C9.69234 8.05058 9.7372 8.50775 10.0799 8.92555C11.1186 10.1985 12.0354 12.0892 12.9292 13.0565C13.255 13.4092 13.5805 13.7621 13.9056 14.1154C13.7251 13.7664 13.5633 13.4555 13.3527 13.0453C12.6338 11.6454 11.9499 9.68858 11.268 8.46043C11.0433 8.16202 10.747 7.78297 10.3533 7.77819ZM8.1956 9.20996C7.40916 9.33484 7.6845 10.0235 7.9275 10.4501C8.64975 12.0098 9.99898 13.2333 10.6038 14.4752C11.8863 17.5148 12.8495 20.5154 14.7433 22.3678C14.9636 22.0481 15.2194 21.7544 15.5058 21.4923C16.0424 21.0019 16.6773 20.6833 17.3534 20.4836C16.5764 18.9165 16.8288 19.1424 11.9996 13.9154C10.8682 12.6909 9.96263 10.7837 9.09933 9.72577C8.83432 9.47757 8.55258 9.23534 8.1956 9.20996ZM7.17867 11.6638L4.38966 26.8624L1.59375 27.6265L1.82079 28.4031L5.32854 27.4889L7.81641 12.6489C7.59605 12.3257 7.38341 11.9972 7.17867 11.6638ZM8.85492 14.1091L8.61073 15.5653C8.796 15.5414 8.98303 15.518 9.17112 15.495L9.38318 14.8979C9.21478 14.6263 9.039 14.3688 8.85492 14.1091ZM19.5978 14.8871C19.5816 15.4204 19.5258 15.886 19.6257 16.2497C19.7672 16.7645 20.1033 17.2505 21.6346 17.6922L22.0349 17.8078L22.0871 18.221C22.1801 18.9579 22.3297 19.7185 22.5891 20.428C23.0136 20.5927 23.2823 20.4105 23.6935 20.3977C23.8625 20.3941 24.031 20.418 24.1924 20.4685C24.1844 20.3557 24.1791 20.2428 24.1764 20.1298C24.2411 18.3525 24.7468 17.0528 26.1446 16.1406C24.261 15.272 21.5248 14.9266 19.5978 14.8871ZM18.2986 15.9964C17.4693 16.0434 16.6194 16.0969 15.764 16.1562C17.9389 18.5829 17.8765 18.7476 18.647 20.2385C18.968 20.2069 19.2904 20.1926 19.6089 20.193C19.9206 20.1934 20.2282 20.2074 20.5276 20.2297C20.7268 20.129 20.9223 20.021 21.1134 19.9057C21.0221 19.5245 20.9529 19.1458 20.8984 18.7794C19.4016 18.2598 18.6438 17.453 18.4053 16.5853C18.3499 16.3835 18.3173 16.1866 18.2986 15.9964ZM10.127 16.6565C10.0873 16.661 10.0464 16.665 10.0068 16.6696C9.46773 16.7313 8.92934 16.7987 8.3917 16.8718L7.67318 21.1584C9.18398 21.4803 10.8613 21.7007 12.5702 21.7417C11.4085 20.1007 10.7906 18.3748 10.127 16.6565ZM27.2274 16.9794C26.5465 17.2993 26.1372 17.7157 25.8682 18.1825C25.5406 18.7509 25.4274 19.4252 25.4418 20.1028C25.4499 20.4808 25.4987 20.8551 25.5651 21.2022C25.6553 21.5883 25.8902 21.9106 26.221 21.9609C26.7705 22.0394 27.3004 21.9198 27.7105 21.5767C28.1205 21.2336 28.4556 20.6426 28.5085 19.6117C28.5181 19.424 28.5021 19.2253 28.4671 19.0245C28.4612 19.1672 28.4468 19.3094 28.4242 19.4505C28.2759 20.3724 27.8209 21.0659 27.4079 20.9995C26.9951 20.9329 26.7805 20.1318 26.9288 19.21C27.0742 18.3073 27.5147 17.6202 27.923 17.6591C27.6997 17.3278 27.4427 17.1032 27.2274 16.9794ZM4.82334 17.4876C4.47171 17.5667 4.14159 17.6487 3.83798 17.7336C3.06877 17.9489 2.46359 18.1888 2.10626 18.4082C1.80103 18.5956 1.75315 18.6952 1.74169 18.7295C1.7618 18.7604 1.80645 18.8338 1.91536 18.9313C2.11146 19.1065 2.44868 19.3324 2.88975 19.5626C3.28863 19.7707 3.7759 19.9842 4.32701 20.1925L4.82334 17.4876V17.4876ZM30.2854 19.2773L29.7742 19.6069C29.7735 19.6301 29.7735 19.6533 29.7723 19.6765C29.7594 19.9328 29.7283 20.1879 29.6792 20.4398L32.6389 24.5611L34.4075 23.8748L33.9495 22.6948L32.8835 23.1455L30.2854 19.2773ZM19.8983 21.4955C19.813 21.4945 19.7276 21.4946 19.6423 21.4957C18.3667 21.5119 17.1003 21.7497 16.3594 22.4267C14.9843 23.6832 14.8016 25.8884 14.5936 27.9047L16.3459 29.963L17.4233 29.4255L15.9452 27.5842L15.9961 27.3006C16.2188 26.0624 16.3452 24.9039 17.5734 23.764L17.7751 23.5767L18.0498 23.5967C18.999 23.6657 19.8423 23.6954 20.4764 23.5612C21.1041 23.4283 21.5112 23.1927 21.8407 22.6217C21.9567 22.3842 21.9577 22.2484 21.9096 22.0875C21.8715 21.9594 21.7636 21.8001 21.6152 21.6302C21.0818 21.5556 20.4948 21.5019 19.8983 21.4955ZM23.7233 21.6631C23.1407 21.8903 23.0306 22.7126 23.2004 23.1746C23.3394 23.5475 23.6274 23.906 24.024 24.227C24.742 24.8079 25.7864 25.2199 26.5796 25.423L29.0486 23.7045L31.7287 27.2559L34.372 26.3832L34.0807 25.3896L32.1883 26.1037L29.3058 22.0894L26.3818 24.1798L26.006 23.8644C25.2085 23.1948 24.6393 22.3123 24.1847 21.9121C23.9573 21.712 23.8148 21.661 23.7233 21.6631ZM7.46351 22.4088L7.17347 24.1391C9.61795 24.1789 11.8925 23.9904 14.0705 23.6648C14.0883 23.6181 14.1067 23.5715 14.1255 23.5252C14.0163 23.4276 13.9102 23.3267 13.8072 23.2226C13.7399 23.1538 13.6735 23.0843 13.6078 23.0139C11.4598 23.0572 9.34352 22.8075 7.46351 22.4088ZM3.55329 24.4082L2.1142 24.8014L2.34131 25.578L3.38883 25.3051L3.55336 24.4081L3.55329 24.4082ZM18.2568 24.8728C18.1054 25.1142 18.0531 25.4495 17.9688 25.7301L20.6729 28.0022L21.487 27.0333L19.4206 25.2968L19.5339 24.9197C19.1167 24.925 18.6897 24.902 18.2568 24.8728Z" stroke="url(#paint0_linear_4092_56638)" stroke-width="2" mask="url(#path-1-inside-1_4092_56638)"/>
<defs>
<linearGradient id="paint0_linear_4092_56638" x1="1.59375" y1="18.1962" x2="24.3781" y2="33.3128" gradientUnits="userSpaceOnUse">
<stop offset="0.283654" stop-color="#865AFD"/>
<stop offset="1" stop-color="#5691FB"/>
</linearGradient>
</defs>
</svg>
