<svg width="24" height="24" viewBox="0 0 24 24" fill="none" xmlns="http://www.w3.org/2000/svg">
<path d="M7.43589 2.97925H4.6373C3.40081 2.97925 2.39844 3.98162 2.39844 5.21812V8.0167C2.39844 9.25319 3.40081 10.2556 4.6373 10.2556H7.43589C8.67238 10.2556 9.67476 9.25319 9.67476 8.0167V5.21812C9.67476 3.98162 8.67238 2.97925 7.43589 2.97925Z" stroke="white" stroke-width="1.5" stroke-linecap="round" stroke-linejoin="round"/>
<path d="M15.6503 3.05541C16.0701 2.63569 16.6395 2.3999 17.2332 2.3999C17.8268 2.3999 18.3962 2.63569 18.8161 3.05541L20.7952 5.03457C21.2149 5.45442 21.4507 6.02378 21.4507 6.61745C21.4507 7.21112 21.2149 7.78048 20.7952 8.20033L18.8161 10.1795C18.3962 10.5992 17.8268 10.835 17.2332 10.835C16.6395 10.835 16.0701 10.5992 15.6503 10.1795L13.6711 8.20033C13.2514 7.78048 13.0156 7.21112 13.0156 6.61745C13.0156 6.02378 13.2514 5.45442 13.6711 5.03457L15.6503 3.05541Z" stroke="white" stroke-width="1.5" stroke-linecap="round" stroke-linejoin="round"/>
<path d="M7.99561 14.1736H4.07759C3.15022 14.1736 2.39844 14.9254 2.39844 15.8527V19.7708C2.39844 20.6981 3.15022 21.4499 4.07759 21.4499H7.99561C8.92298 21.4499 9.67476 20.6981 9.67476 19.7708V15.8527C9.67476 14.9254 8.92298 14.1736 7.99561 14.1736Z" stroke="white" stroke-width="1.5" stroke-linecap="round" stroke-linejoin="round"/>
<path d="M18.6312 14.1736H15.8326C14.5961 14.1736 13.5938 15.176 13.5938 16.4125V19.211C13.5938 20.4475 14.5961 21.4499 15.8326 21.4499H18.6312C19.8677 21.4499 20.8701 20.4475 20.8701 19.211V16.4125C20.8701 15.176 19.8677 14.1736 18.6312 14.1736Z" stroke="white" stroke-width="1.5" stroke-linecap="round" stroke-linejoin="round"/>
</svg>
