<svg width="36" height="36" viewBox="0 0 36 36" fill="none" xmlns="http://www.w3.org/2000/svg">
<path d="M3 19.5C3.79565 19.5 4.55871 19.1839 5.12132 18.6213C5.68393 18.0587 6 17.2956 6 16.5V10.5C6 9.70435 6.31607 8.94129 6.87868 8.37868C7.44129 7.81607 8.20435 7.5 9 7.5C9.79565 7.5 10.5587 7.81607 11.1213 8.37868C11.6839 8.94129 12 9.70435 12 10.5V30C12 30.7956 12.3161 31.5587 12.8787 32.1213C13.4413 32.6839 14.2044 33 15 33C15.7956 33 16.5587 32.6839 17.1213 32.1213C17.6839 31.5587 18 30.7956 18 30V6C18 5.20435 18.3161 4.44129 18.8787 3.87868C19.4413 3.31607 20.2044 3 21 3C21.7956 3 22.5587 3.31607 23.1213 3.87868C23.6839 4.44129 24 5.20435 24 6V25.5C24 26.2956 24.3161 27.0587 24.8787 27.6213C25.4413 28.1839 26.2044 28.5 27 28.5C27.7956 28.5 28.5587 28.1839 29.1213 27.6213C29.6839 27.0587 30 26.2956 30 25.5V19.5C30 18.7044 30.3161 17.9413 30.8787 17.3787C31.4413 16.8161 32.2044 16.5 33 16.5" stroke="white" stroke-opacity="0.7" stroke-width="2" stroke-linecap="round" stroke-linejoin="round"/>
</svg>
